<svg width="79" height="71" viewBox="0 0 79 71" fill="none" xmlns="http://www.w3.org/2000/svg">
	<path
		d="M70.8077 57.4434L79 65.562L73.5385 71L65.3846 62.843L57.2308 71L51.8077 65.562L59.9615 57.4434L51.8077 49.3247L57.2308 43.925L65.3846 52.0437L73.5385 43.925L79 49.3247L70.8077 57.4434ZM65.3846 34.466C69.5769 34.466 73.5385 35.6149 76.9231 37.568V7.65911C76.9231 3.40831 73.5 0 69.2308 0H7.69231C3.46154 0 0 3.40831 0 7.65911V53.6138C0 57.8646 3.46154 61.2729 7.69231 61.2729H42.6538C42.4615 60.0092 42.3077 58.7454 42.3077 57.4434C42.3077 44.7675 52.6538 34.466 65.3846 34.466Z"
		fill="white" fill-opacity="0.3" />
</svg>