<svg width="101" height="71" viewBox="0 0 80 54" fill="none" xmlns="http://www.w3.org/2000/svg">
	<path
		d="M23.2692 26.5933C30.5823 26.5933 36.5658 20.6098 36.5658 13.2967C36.5658 5.9835 30.5823 0 23.2692 0C15.956 0 9.9725 5.9835 9.9725 13.2967C9.9725 20.6098 15.956 26.5933 23.2692 26.5933ZM36.5658 53.1867V35.5686C32.9092 34.2389 28.2554 33.2417 23.2692 33.2417C10.3049 33.2417 0 39.2252 0 46.5383V53.1867H36.5658ZM73.1317 0H49.8625C46.2059 0 43.2142 2.99175 43.2142 6.64833V46.5383C43.2142 50.1949 46.2059 53.1867 49.8625 53.1867H73.1317C76.7882 53.1867 79.78 50.1949 79.78 46.5383V6.64833C79.78 2.99175 76.7882 0 73.1317 0ZM59.835 46.5383H53.1867V6.64833H59.835V46.5383Z"
		fill="white" fill-opacity="0.3" />
</svg>