<svg width="99" height="72" viewBox="0 0 99 72" fill="none" xmlns="http://www.w3.org/2000/svg">
<path d="M18.8958 36.4521L23.9104 31.4479L18.8937 26.4437L17.5875 27.75L20.4687 30.6312C18.8549 30.6382 17.4215 30.4486 16.1687 30.0625C14.9146 29.6736 13.909 29.1021 13.1521 28.3479C12.3785 27.5729 11.7958 26.6937 11.4042 25.7104C11.0125 24.7271 10.8167 23.7444 10.8167 22.7625C10.8167 22.1722 10.8819 21.5819 11.0125 20.9917C11.1431 20.4014 11.3333 19.8417 11.5833 19.3125L10.1729 18.0625C9.77014 18.7972 9.46944 19.5583 9.27083 20.3458C9.07361 21.1333 8.975 21.9347 8.975 22.75C8.975 23.9875 9.21528 25.2097 9.69583 26.4167C10.1764 27.6236 10.8868 28.7021 11.8271 29.6521C12.7674 30.6062 14.0028 31.3146 15.5333 31.7771C17.0639 32.241 18.6354 32.4771 20.2479 32.4854L17.5875 35.1458L18.8958 36.4521ZM27.3687 27.4375C27.7715 26.7028 28.0715 25.9417 28.2687 25.1542C28.4674 24.3667 28.5667 23.5653 28.5667 22.75C28.5667 21.5167 28.3278 20.291 27.85 19.0729C27.3722 17.8549 26.6569 16.7757 25.7042 15.8354C24.7778 14.8812 23.5451 14.1743 22.0062 13.7146C20.466 13.2562 18.8944 13.0271 17.2917 13.0271L19.9521 10.3542L18.6458 9.04792L13.6292 14.0521L18.6458 19.0562L19.9521 17.75L17.0583 14.8583C18.6639 14.8583 20.1 15.0535 21.3667 15.4437C22.6319 15.8354 23.6424 16.4104 24.3979 17.1687C25.1549 17.9257 25.7312 18.7972 26.1271 19.7833C26.5243 20.7681 26.7229 21.7528 26.7229 22.7375C26.7229 23.3278 26.6583 23.9181 26.5292 24.5083C26.4 25.0986 26.2097 25.6583 25.9583 26.1875L27.3687 27.4375ZM18.7562 41.5C16.1646 41.5 13.7271 41.0083 11.4437 40.025C9.16181 39.0403 7.17639 37.7042 5.4875 36.0167C3.79861 34.3306 2.46181 32.3472 1.47708 30.0667C0.492361 27.7861 0 25.3493 0 22.7562C0 20.1646 0.491667 17.7271 1.475 15.4437C2.45972 13.1618 3.79583 11.1764 5.48333 9.4875C7.16944 7.79861 9.15278 6.46181 11.4333 5.47708C13.7139 4.49236 16.1507 4 18.7437 4C21.3354 4 23.7729 4.49167 26.0562 5.475C28.3382 6.45972 30.3236 7.79583 32.0125 9.48333C33.7014 11.1694 35.0382 13.1528 36.0229 15.4333C37.0076 17.7139 37.5 20.1507 37.5 22.7437C37.5 25.3354 37.0083 27.7729 36.025 30.0562C35.0403 32.3382 33.7042 34.3236 32.0167 36.0125C30.3306 37.7014 28.3472 39.0382 26.0667 40.0229C23.7861 41.0076 21.3493 41.5 18.7562 41.5ZM18.75 39.4167C23.4028 39.4167 27.3437 37.8021 30.5729 34.5729C33.8021 31.3437 35.4167 27.4028 35.4167 22.75C35.4167 18.0972 33.8021 14.1562 30.5729 10.9271C27.3437 7.69792 23.4028 6.08333 18.75 6.08333C14.0972 6.08333 10.1562 7.69792 6.92708 10.9271C3.69792 14.1562 2.08333 18.0972 2.08333 22.75C2.08333 27.4028 3.69792 31.3437 6.92708 34.5729C10.1562 37.8021 14.0972 39.4167 18.75 39.4167Z" fill="white" fill-opacity="0.3"/>
<path d="M64.7963 30.8571C60.3569 30.8571 56.0993 29.2316 52.9601 26.3382C49.821 23.4448 48.0574 19.5205 48.0574 15.4286C48.0574 11.3367 49.821 7.41234 52.9601 4.51892C56.0993 1.62551 60.3569 0 64.7963 0C69.2357 0 73.4933 1.62551 76.6324 4.51892C79.7715 7.41234 81.5351 11.3367 81.5351 15.4286C81.5351 19.5205 79.7715 23.4448 76.6324 26.3382C73.4933 29.2316 69.2357 30.8571 64.7963 30.8571ZM64.7963 41.1429C55.9174 41.1429 47.4023 44.3939 41.124 50.1807C34.8457 55.9675 31.3186 63.8162 31.3186 72H98.2739C98.2739 63.8162 94.7468 55.9675 88.4685 50.1807C82.1903 44.3939 73.6751 41.1429 64.7963 41.1429Z" fill="white" fill-opacity="0.3"/>
</svg>
