<svg class="vector" width="16" height="16" viewBox="0 0 16 16" fill="none" xmlns="http://www.w3.org/2000/svg">
  	<path d="M13.4444 15V2.55556C13.4444 2.143 13.2806 1.74733 12.9888 1.45561C12.6971 1.16389 12.3014 1 11.8889 1H4.11111C3.69855 1 3.30289 1.16389 3.01117 1.45561C2.71944 1.74733 2.55556 2.143 2.55556 2.55556V15M13.4444 15H15M13.4444 15H9.55556M2.55556 15H1M2.55556 15H6.44444M9.55556 15V11.1111C9.55556 10.9048 9.47361 10.707 9.32775 10.5611C9.18189 10.4153 8.98406 10.3333 8.77778 10.3333H7.22222C7.01594 10.3333 6.81811 10.4153 6.67225 10.5611C6.52639 10.707 6.44444 10.9048 6.44444 11.1111V15M9.55556 15H6.44444M5.66667 4.11111H6.44444M5.66667 7.22222H6.44444M9.55556 4.11111H10.3333M9.55556 7.22222H10.3333" stroke="#940000" stroke-width="1.5" stroke-linecap="round" stroke-linejoin="round"/>
  	<path d="M13.4444 15V2.55556C13.4444 2.143 13.2806 1.74733 12.9888 1.45561C12.6971 1.16389 12.3014 1 11.8889 1H4.11111C3.69855 1 3.30289 1.16389 3.01117 1.45561C2.71944 1.74733 2.55556 2.143 2.55556 2.55556V15M13.4444 15H15M13.4444 15H9.55556M2.55556 15H1M2.55556 15H6.44444M9.55556 15V11.1111C9.55556 10.9048 9.47361 10.707 9.32775 10.5611C9.18189 10.4153 8.98406 10.3333 8.77778 10.3333H7.22222C7.01594 10.3333 6.81811 10.4153 6.67225 10.5611C6.52639 10.707 6.44444 10.9048 6.44444 11.1111V15M9.55556 15H6.44444M5.66667 4.11111H6.44444M5.66667 7.22222H6.44444M9.55556 4.11111H10.3333M9.55556 7.22222H10.3333" stroke="url(#paint0_radial_83_181)" stroke-width="1.5" stroke-linecap="round" stroke-linejoin="round"/>
  	<defs>
    		<radialGradient id="paint0_radial_83_181" cx="0" cy="0" r="1" gradientUnits="userSpaceOnUse" gradientTransform="translate(11.9063 5.31667) rotate(21.5935) scale(11.7294 18.6222)">
      			<stop stop-color="#121B67"/>
      			<stop offset="0.554587" stop-color="#ED4055"/>
      			<stop offset="0.96845" stop-color="#EDD62C"/>
      			<stop offset="0.96855" stop-color="#EDDA2B"/>
      			<stop offset="0.96865" stop-color="#EDDE2A"/>
      			<stop offset="0.96875" stop-color="#EDE229"/>
      			<stop offset="0.9992" stop-color="#615E11"/>
      			<stop offset="0.9993" stop-color="#EDE927"/>
      			<stop offset="0.9994" stop-color="#EDEB27"/>
      			<stop offset="0.9995" stop-color="#EDEC26"/>
      			<stop offset="0.9996" stop-color="#EDEE26"/>
      			<stop offset="0.9997" stop-color="#EDF224"/>
      			<stop offset="0.9998" stop-color="#EDF623"/>
      			<stop offset="0.9999" stop-color="#EDFB22"/>
      			<stop offset="1" stop-color="#EDFF21"/>
      			<stop offset="1" stop-color="#EDFF21"/>
      			<stop offset="1" stop-color="#EDFF21"/>
      			<stop offset="1" stop-color="#EDFF21"/>
      			<stop offset="1" stop-color="#EDFF21"/>
      			<stop offset="1" stop-color="#EDFF21"/>
    		</radialGradient>
  	</defs>
</svg>
