<svg width="23" height="18" viewBox="0 0 23 18" fill="none" xmlns="http://www.w3.org/2000/svg">
<path d="M3.7375 7.84709e-09H19.2625C20.2172 -6.11401e-05 21.1357 0.357248 21.8296 0.99863C22.5235 1.64001 22.9402 2.51684 22.9943 3.44925L23 3.65625V14.3438C23.0001 15.2777 22.6348 16.1762 21.9792 16.855C21.3235 17.5338 20.4272 17.9415 19.4741 17.9944L19.2625 18H3.7375C2.78284 18.0001 1.86435 17.6428 1.17043 17.0014C0.476522 16.36 0.0597985 15.4832 0.00575014 14.5507L8.02146e-09 14.3438V3.65625C-6.24987e-05 2.72235 0.365187 1.82382 1.02082 1.14499C1.67646 0.466163 2.57277 0.0584985 3.5259 0.00562514L3.7375 7.84709e-09ZM21.275 6.04463L11.9025 10.8709C11.7967 10.9256 11.6804 10.9581 11.561 10.9664C11.4416 10.9748 11.3217 10.9587 11.209 10.9193L11.0986 10.872L1.725 6.04575V14.3438C1.72502 14.8378 1.91495 15.3139 2.25708 15.6773C2.59922 16.0408 3.06854 16.2651 3.5719 16.3057L3.7375 16.3125H19.2625C19.7678 16.3125 20.2545 16.1265 20.6261 15.7916C20.9976 15.4566 21.2268 14.9972 21.2681 14.5046L21.275 14.3438V6.04463ZM19.2625 1.6875H3.7375C3.23243 1.68752 2.74583 1.87332 2.3743 2.20801C2.00277 2.54271 1.77346 3.00184 1.7319 3.49425L1.725 3.65625V4.13888L11.5 9.171L21.275 4.13775V3.65625C21.275 3.16198 21.0849 2.68581 20.7425 2.32233C20.4001 1.95884 19.9305 1.73464 19.4269 1.69425L19.2625 1.6875Z" fill="black"/>
<path d="M3.7375 7.84709e-09H19.2625C20.2172 -6.11401e-05 21.1357 0.357248 21.8296 0.99863C22.5235 1.64001 22.9402 2.51684 22.9943 3.44925L23 3.65625V14.3438C23.0001 15.2777 22.6348 16.1762 21.9792 16.855C21.3235 17.5338 20.4272 17.9415 19.4741 17.9944L19.2625 18H3.7375C2.78284 18.0001 1.86435 17.6428 1.17043 17.0014C0.476522 16.36 0.0597985 15.4832 0.00575014 14.5507L8.02146e-09 14.3438V3.65625C-6.24987e-05 2.72235 0.365187 1.82382 1.02082 1.14499C1.67646 0.466163 2.57277 0.0584985 3.5259 0.00562514L3.7375 7.84709e-09ZM21.275 6.04463L11.9025 10.8709C11.7967 10.9256 11.6804 10.9581 11.561 10.9664C11.4416 10.9748 11.3217 10.9587 11.209 10.9193L11.0986 10.872L1.725 6.04575V14.3438C1.72502 14.8378 1.91495 15.3139 2.25708 15.6773C2.59922 16.0408 3.06854 16.2651 3.5719 16.3057L3.7375 16.3125H19.2625C19.7678 16.3125 20.2545 16.1265 20.6261 15.7916C20.9976 15.4566 21.2268 14.9972 21.2681 14.5046L21.275 14.3438V6.04463ZM19.2625 1.6875H3.7375C3.23243 1.68752 2.74583 1.87332 2.3743 2.20801C2.00277 2.54271 1.77346 3.00184 1.7319 3.49425L1.725 3.65625V4.13888L11.5 9.171L21.275 4.13775V3.65625C21.275 3.16198 21.0849 2.68581 20.7425 2.32233C20.4001 1.95884 19.9305 1.73464 19.4269 1.69425L19.2625 1.6875Z" fill="url(#paint0_radial_1_191)"/>
<defs>
<radialGradient id="paint0_radial_1_191" cx="0" cy="0" r="1" gradientUnits="userSpaceOnUse" gradientTransform="translate(17.9174 5.55) rotate(17.2106) scale(18.7573 24.5971)">
<stop stop-color="#121B67"/>
<stop offset="0.635422" stop-color="#ED4055"/>
<stop offset="0.96845" stop-color="#EDD62C"/>
<stop offset="0.96855" stop-color="#EDDA2B"/>
<stop offset="0.96865" stop-color="#EDDE2A"/>
<stop offset="0.96875" stop-color="#EDE229"/>
<stop offset="0.9992" stop-color="#615E11"/>
<stop offset="0.9993" stop-color="#EDE927"/>
<stop offset="0.9994" stop-color="#EDEB27"/>
<stop offset="0.9995" stop-color="#EDEC26"/>
<stop offset="0.9996" stop-color="#EDEE26"/>
<stop offset="0.9997" stop-color="#EDF224"/>
<stop offset="0.9998" stop-color="#EDF623"/>
<stop offset="0.9999" stop-color="#EDFB22"/>
<stop offset="1" stop-color="#EDFF21"/>
<stop offset="1" stop-color="#EDFF21"/>
<stop offset="1" stop-color="#EDFF21"/>
<stop offset="1" stop-color="#EDFF21"/>
<stop offset="1" stop-color="#EDFF21"/>
<stop offset="1" stop-color="#EDFF21"/>
</radialGradient>
</defs>
</svg>
