<!-- For more features use the AutoHTML plugin window in figma ... --> 
<svg class="vector" width="15" height="19" viewBox="0 0 15 19" fill="none" xmlns="http://www.w3.org/2000/svg">
  	<path d="M2.55878 2.65004L2.5588 2.65003C3.8736 1.27034 5.65157 0.5 7.50008 0.5C9.34859 0.5 11.1266 1.27033 12.4414 2.65003C13.7569 4.03054 14.5 5.90783 14.5 7.87006C14.5 9.83228 13.7569 11.7096 12.4414 13.0901L7.50008 18.2752L2.5588 13.0901L2.55878 13.0901C1.90752 12.4067 1.3897 11.5942 1.03602 10.6982C0.682318 9.80226 0.5 8.84117 0.5 7.87006C0.5 6.89894 0.682318 5.93786 1.03602 5.04188C1.3897 4.14593 1.90752 3.33338 2.55878 2.65004ZM7.50008 10.6185C8.20896 10.6185 8.88363 10.3228 9.37718 9.80491C9.86994 9.28782 10.1428 8.59144 10.1428 7.87006C10.1428 7.14868 9.86994 6.45229 9.37718 5.93521C8.88363 5.41731 8.20896 5.12158 7.50008 5.12158C6.7912 5.12158 6.11653 5.41731 5.62298 5.93521C5.13022 6.45229 4.85735 7.14868 4.85735 7.87006C4.85735 8.59144 5.13022 9.28782 5.62298 9.80491C6.11653 10.3228 6.7912 10.6185 7.50008 10.6185Z" fill="#940000"/>
  	<path d="M2.55878 2.65004L2.5588 2.65003C3.8736 1.27034 5.65157 0.5 7.50008 0.5C9.34859 0.5 11.1266 1.27033 12.4414 2.65003C13.7569 4.03054 14.5 5.90783 14.5 7.87006C14.5 9.83228 13.7569 11.7096 12.4414 13.0901L7.50008 18.2752L2.5588 13.0901L2.55878 13.0901C1.90752 12.4067 1.3897 11.5942 1.03602 10.6982C0.682318 9.80226 0.5 8.84117 0.5 7.87006C0.5 6.89894 0.682318 5.93786 1.03602 5.04188C1.3897 4.14593 1.90752 3.33338 2.55878 2.65004ZM7.50008 10.6185C8.20896 10.6185 8.88363 10.3228 9.37718 9.80491C9.86994 9.28782 10.1428 8.59144 10.1428 7.87006C10.1428 7.14868 9.86994 6.45229 9.37718 5.93521C8.88363 5.41731 8.20896 5.12158 7.50008 5.12158C6.7912 5.12158 6.11653 5.41731 5.62298 5.93521C5.13022 6.45229 4.85735 7.14868 4.85735 7.87006C4.85735 8.59144 5.13022 9.28782 5.62298 9.80491C6.11653 10.3228 6.7912 10.6185 7.50008 10.6185Z" fill="url(#paint0_radial_83_186)"/>
  	<path d="M2.55878 2.65004L2.5588 2.65003C3.8736 1.27034 5.65157 0.5 7.50008 0.5C9.34859 0.5 11.1266 1.27033 12.4414 2.65003C13.7569 4.03054 14.5 5.90783 14.5 7.87006C14.5 9.83228 13.7569 11.7096 12.4414 13.0901L7.50008 18.2752L2.5588 13.0901L2.55878 13.0901C1.90752 12.4067 1.3897 11.5942 1.03602 10.6982C0.682318 9.80226 0.5 8.84117 0.5 7.87006C0.5 6.89894 0.682318 5.93786 1.03602 5.04188C1.3897 4.14593 1.90752 3.33338 2.55878 2.65004ZM7.50008 10.6185C8.20896 10.6185 8.88363 10.3228 9.37718 9.80491C9.86994 9.28782 10.1428 8.59144 10.1428 7.87006C10.1428 7.14868 9.86994 6.45229 9.37718 5.93521C8.88363 5.41731 8.20896 5.12158 7.50008 5.12158C6.7912 5.12158 6.11653 5.41731 5.62298 5.93521C5.13022 6.45229 4.85735 7.14868 4.85735 7.87006C4.85735 8.59144 5.13022 9.28782 5.62298 9.80491C6.11653 10.3228 6.7912 10.6185 7.50008 10.6185Z" stroke="url(#paint1_radial_83_186)"/>
  	<defs>
    		<radialGradient id="paint0_radial_83_186" cx="0" cy="0" r="1" gradientUnits="userSpaceOnUse" gradientTransform="translate(11.6853 5.85833) rotate(26.6266) scale(13.0716 24.298)">
      			<stop stop-color="#121B67"/>
      			<stop offset="0.554587" stop-color="#ED4055"/>
      			<stop offset="0.96845" stop-color="#EDD62C"/>
      			<stop offset="0.96855" stop-color="#EDDA2B"/>
      			<stop offset="0.96865" stop-color="#EDDE2A"/>
      			<stop offset="0.96875" stop-color="#EDE229"/>
      			<stop offset="0.9992" stop-color="#615E11"/>
      			<stop offset="0.9993" stop-color="#EDE927"/>
      			<stop offset="0.9994" stop-color="#EDEB27"/>
      			<stop offset="0.9995" stop-color="#EDEC26"/>
      			<stop offset="0.9996" stop-color="#EDEE26"/>
      			<stop offset="0.9997" stop-color="#EDF224"/>
      			<stop offset="0.9998" stop-color="#EDF623"/>
      			<stop offset="0.9999" stop-color="#EDFB22"/>
      			<stop offset="1" stop-color="#EDFF21"/>
      			<stop offset="1" stop-color="#EDFF21"/>
      			<stop offset="1" stop-color="#EDFF21"/>
      			<stop offset="1" stop-color="#EDFF21"/>
      			<stop offset="1" stop-color="#EDFF21"/>
      			<stop offset="1" stop-color="#EDFF21"/>
    		</radialGradient>
    		<radialGradient id="paint1_radial_83_186" cx="0" cy="0" r="1" gradientUnits="userSpaceOnUse" gradientTransform="translate(11.6853 5.85833) rotate(26.6266) scale(13.0716 24.298)">
      			<stop stop-color="#121B67"/>
      			<stop offset="0.554587" stop-color="#ED4055"/>
      			<stop offset="0.96845" stop-color="#EDD62C"/>
      			<stop offset="0.96855" stop-color="#EDDA2B"/>
      			<stop offset="0.96865" stop-color="#EDDE2A"/>
      			<stop offset="0.96875" stop-color="#EDE229"/>
      			<stop offset="0.9992" stop-color="#615E11"/>
      			<stop offset="0.9993" stop-color="#EDE927"/>
      			<stop offset="0.9994" stop-color="#EDEB27"/>
      			<stop offset="0.9995" stop-color="#EDEC26"/>
      			<stop offset="0.9996" stop-color="#EDEE26"/>
      			<stop offset="0.9997" stop-color="#EDF224"/>
      			<stop offset="0.9998" stop-color="#EDF623"/>
      			<stop offset="0.9999" stop-color="#EDFB22"/>
      			<stop offset="1" stop-color="#EDFF21"/>
      			<stop offset="1" stop-color="#EDFF21"/>
      			<stop offset="1" stop-color="#EDFF21"/>
      			<stop offset="1" stop-color="#EDFF21"/>
      			<stop offset="1" stop-color="#EDFF21"/>
      			<stop offset="1" stop-color="#EDFF21"/>
    		</radialGradient>
  	</defs>
</svg>
