<!-- For more features use the AutoHTML plugin window in figma ... --> 
<svg class="vector" width="21" height="17" viewBox="0 0 21 17" fill="none" xmlns="http://www.w3.org/2000/svg">
  	<path d="M1 6.35714H20M5.22222 11.7143H6.27778M10.5 11.7143H11.5556M4.16667 16H16.8333C17.6732 16 18.4786 15.6614 19.0725 15.0586C19.6664 14.4558 20 13.6382 20 12.7857V4.21429C20 3.3618 19.6664 2.54424 19.0725 1.94144C18.4786 1.33865 17.6732 1 16.8333 1H4.16667C3.32681 1 2.52136 1.33865 1.9275 1.94144C1.33363 2.54424 1 3.3618 1 4.21429V12.7857C1 13.6382 1.33363 14.4558 1.9275 15.0586C2.52136 15.6614 3.32681 16 4.16667 16Z" stroke="#940000" stroke-width="1.5" stroke-linecap="round" stroke-linejoin="round"/>
  	<path d="M1 6.35714H20M5.22222 11.7143H6.27778M10.5 11.7143H11.5556M4.16667 16H16.8333C17.6732 16 18.4786 15.6614 19.0725 15.0586C19.6664 14.4558 20 13.6382 20 12.7857V4.21429C20 3.3618 19.6664 2.54424 19.0725 1.94144C18.4786 1.33865 17.6732 1 16.8333 1H4.16667C3.32681 1 2.52136 1.33865 1.9275 1.94144C1.33363 2.54424 1 3.3618 1 4.21429V12.7857C1 13.6382 1.33363 14.4558 1.9275 15.0586C2.52136 15.6614 3.32681 16 4.16667 16Z" stroke="url(#paint0_radial_83_194)" stroke-width="1.5" stroke-linecap="round" stroke-linejoin="round"/>
  	<defs>
    		<radialGradient id="paint0_radial_83_194" cx="0" cy="0" r="1" gradientUnits="userSpaceOnUse" gradientTransform="translate(11 8) rotate(6.54777) scale(19.7314 26.0612)">
      			<stop stop-color="#121B67"/>
      			<stop offset="0.554587" stop-color="#ED4055"/>
      			<stop offset="0.96845" stop-color="#EDD62C"/>
      			<stop offset="0.96855" stop-color="#EDDA2B"/>
      			<stop offset="0.96865" stop-color="#EDDE2A"/>
      			<stop offset="0.96875" stop-color="#EDE229"/>
      			<stop offset="0.9992" stop-color="#615E11"/>
      			<stop offset="0.9993" stop-color="#EDE927"/>
      			<stop offset="0.9994" stop-color="#EDEB27"/>
      			<stop offset="0.9995" stop-color="#EDEC26"/>
      			<stop offset="0.9996" stop-color="#EDEE26"/>
      			<stop offset="0.9997" stop-color="#EDF224"/>
      			<stop offset="0.9998" stop-color="#EDF623"/>
      			<stop offset="0.9999" stop-color="#EDFB22"/>
      			<stop offset="1" stop-color="#EDFF21"/>
      			<stop offset="1" stop-color="#EDFF21"/>
      			<stop offset="1" stop-color="#EDFF21"/>
      			<stop offset="1" stop-color="#EDFF21"/>
      			<stop offset="1" stop-color="#EDFF21"/>
      			<stop offset="1" stop-color="#EDFF21"/>
    		</radialGradient>
  	</defs>
</svg>
