 <svg
	width="101"
	viewBox="0 0 121 100"
	fill="none"
	xmlns="http://www.w3.org/2000/svg"
>
	<path
		d="M75.625 42.8571C69.6079 42.8571 63.8372 40.5995 59.5825 36.5809C55.3278 32.5622 52.9375 27.1118 52.9375 21.4286C52.9375 15.7454 55.3278 10.2949 59.5825 6.27628C63.8372 2.25765 69.6079 0 75.625 0C81.6421 0 87.4128 2.25765 91.6675 6.27628C95.9222 10.2949 98.3125 15.7454 98.3125 21.4286C98.3125 27.1118 95.9222 32.5622 91.6675 36.5809C87.4128 40.5995 81.6421 42.8571 75.625 42.8571ZM75.625 57.1429C63.5908 57.1429 52.0495 61.6581 43.54 69.6954C35.0306 77.7327 30.25 88.6336 30.25 100H121C121 88.6336 116.219 77.7327 107.71 69.6954C99.2005 61.6581 87.6592 57.1429 75.625 57.1429ZM15.125 28.5714C15.125 26.677 15.9218 24.8602 17.34 23.5207C18.7582 22.1811 20.6818 21.4286 22.6875 21.4286C24.6932 21.4286 26.6168 22.1811 28.035 23.5207C29.4532 24.8602 30.25 26.677 30.25 28.5714V35.7143H37.8125C39.8182 35.7143 41.7418 36.4668 43.16 37.8064C44.5782 39.1459 45.375 40.9627 45.375 42.8571C45.375 44.7515 44.5782 46.5684 43.16 47.9079C41.7418 49.2474 39.8182 50 37.8125 50H30.25V57.1429C30.25 59.0373 29.4532 60.8541 28.035 62.1936C26.6168 63.5332 24.6932 64.2857 22.6875 64.2857C20.6818 64.2857 18.7582 63.5332 17.34 62.1936C15.9218 60.8541 15.125 59.0373 15.125 57.1429V50H7.5625C5.5568 50 3.63324 49.2474 2.215 47.9079C0.796753 46.5684 0 44.7515 0 42.8571C0 40.9627 0.796753 39.1459 2.215 37.8064C3.63324 36.4668 5.5568 35.7143 7.5625 35.7143H15.125V28.5714Z"
		fill="url(#paint0_linear_49_715)"
	/>
	<defs>
		<linearGradient
			id="paint0_linear_49_715"
			x1="121"
			y1="0"
			x2="26.557"
			y2="120.768"
			gradientUnits="userSpaceOnUse"
		>
			<stop stop-color="#121B67" />
			<stop offset="0.554587" stop-color="#ED4055" />
			<stop offset="0.96845" stop-color="#EDD62C" />
			<stop offset="0.96855" stop-color="#EDDA2B" />
			<stop offset="0.96865" stop-color="#EDDE2A" />
			<stop offset="0.96875" stop-color="#EDE229" />
			<stop offset="0.9992" stop-color="#615E11" />
			<stop offset="0.9993" stop-color="#EDE927" />
			<stop offset="0.9994" stop-color="#EDEB27" />
			<stop offset="0.9995" stop-color="#EDEC26" />
			<stop offset="0.9996" stop-color="#EDEE26" />
			<stop offset="0.9997" stop-color="#EDF224" />
			<stop offset="0.9998" stop-color="#EDF623" />
			<stop offset="0.9999" stop-color="#EDFB22" />
			<stop offset="1" stop-color="#EDFF21" />
			<stop offset="1" stop-color="#EDFF21" />
			<stop offset="1" stop-color="#EDFF21" />
			<stop offset="1" stop-color="#EDFF21" />
			<stop offset="1" stop-color="#EDFF21" />
			<stop offset="1" stop-color="#EDFF21" />
		</linearGradient>
	</defs>
</svg>