<!-- For more features use the AutoHTML plugin window in figma ... --> 
<svg class="vector" width="80" height="71" viewBox="0 0 80 71" fill="none" xmlns="http://www.w3.org/2000/svg">
  	<path d="M50.0838 30.857C46.1167 30.857 42.312 29.2315 39.5068 26.338C36.7016 23.4446 35.1257 19.5203 35.1257 15.4284C35.1257 11.3365 36.7016 7.41216 39.5068 4.51874C42.312 1.62532 46.1167 -0.000183105 50.0838 -0.000183105C54.0509 -0.000183105 57.8556 1.62532 60.6608 4.51874C63.466 7.41216 65.0419 11.3365 65.0419 15.4284C65.0419 19.5203 63.466 23.4446 60.6608 26.338C57.8556 29.2315 54.0509 30.857 50.0838 30.857ZM50.0838 41.1427C42.1495 41.1427 34.5402 44.3937 28.9299 50.1805C23.3195 55.9674 20.1676 63.816 20.1676 71.9998H80C80 63.816 76.8481 55.9674 71.2377 50.1805C65.6274 44.3937 58.0181 41.1427 50.0838 41.1427ZM10.1955 20.5712C10.1955 19.2073 10.7208 17.8992 11.6559 16.9347C12.591 15.9702 13.8592 15.4284 15.1816 15.4284C16.5039 15.4284 17.7722 15.9702 18.7072 16.9347C19.6423 17.8992 20.1676 19.2073 20.1676 20.5712V25.7141H25.1536C26.476 25.7141 27.7442 26.2559 28.6793 27.2204C29.6144 28.1849 30.1397 29.493 30.1397 30.857C30.1397 32.2209 29.6144 33.529 28.6793 34.4935C27.7442 35.458 26.476 35.9998 25.1536 35.9998H20.1676V41.1427C20.1676 42.5066 19.6423 43.8147 18.7072 44.7792C17.7722 45.7437 16.5039 46.2855 15.1816 46.2855C13.8592 46.2855 12.591 45.7437 11.6559 44.7792C10.7208 43.8147 10.1955 42.5066 10.1955 41.1427V35.9998H5.2095C3.88712 35.9998 2.6189 35.458 1.68384 34.4935C0.748772 33.529 0.223465 32.2209 0.223465 30.857C0.223465 29.493 0.748772 28.1849 1.68384 27.2204C2.6189 26.2559 3.88712 25.7141 5.2095 25.7141H10.1955V20.5712Z" fill="white" fill-opacity="0.3"/>
</svg>
