<!-- For more features use the AutoHTML plugin window in figma ... --> 
<svg class="group-418" width="281" height="188" viewBox="0 0 281 188" fill="none" xmlns="http://www.w3.org/2000/svg">
  	<path fill-rule="evenodd" clip-rule="evenodd" d="M166.603 68.0733H239.259C243.13 68.0733 246.267 71.2107 246.267 75.0809C246.267 78.9511 243.13 82.0885 239.259 82.0885H197.384C197.919 83.3141 198.215 84.6675 198.215 86.0903C198.215 88.3446 197.47 90.4249 196.213 92.0983H219.238C223.108 92.0983 226.246 95.2357 226.246 99.1059C226.246 102.976 223.108 106.113 219.238 106.113H177.836C174.868 130.925 153.75 150.16 128.139 150.16C127.918 150.16 127.697 150.158 127.477 150.156C127.364 150.161 127.251 150.164 127.138 150.164H7.00761C3.13741 150.164 0 147.026 0 143.156C0 139.286 3.13741 136.148 7.0076 136.148H25.2298C24.4595 134.645 24.0249 132.94 24.0249 131.135C24.0249 125.234 28.6667 120.417 34.4982 120.136H25.0263C21.1561 120.136 18.0187 116.998 18.0187 113.128C18.0187 109.258 21.1561 106.121 25.0263 106.121H78.4421C78.2059 104.149 78.0844 102.141 78.0844 100.106C78.0844 93.4339 79.3897 87.0671 81.7588 81.2466C79.5705 80.0611 78.0844 77.7445 78.0844 75.0809C78.0844 71.2107 81.2218 68.0733 85.092 68.0733H89.6745C98.8562 57.06 112.679 50.0513 128.139 50.0513C143.598 50.0513 157.421 57.06 166.603 68.0733ZM273.295 86.0882C277.165 86.0882 280.303 82.9508 280.303 79.0806C280.303 75.2104 277.165 72.073 273.295 72.073C269.425 72.073 266.288 75.2104 266.288 79.0806C266.288 82.9508 269.425 86.0882 273.295 86.0882Z" fill="url(#paint0_linear_37_371)" fill-opacity="0.21"/>
  	<circle cx="191.208" cy="131.145" r="6.00761" stroke="#31C940" stroke-opacity="0.4" stroke-width="2"/>
  	<circle cx="12.013" cy="168.182" r="11.013" stroke="#31C940" stroke-opacity="0.4" stroke-width="2"/>
  	<circle cx="60.0648" cy="42.0429" r="7.50869" stroke="#FEFEFE"/>
  	<circle cx="140.053" cy="97.0532" r="47.5532" fill="url(#paint1_linear_37_371)" stroke="url(#paint2_linear_37_371)" stroke-width="3"/>
  	<path d="M123.556 100.722L135.499 111.399L162.787 82.0874" stroke="white" stroke-width="3" stroke-linecap="round" stroke-linejoin="round"/>
  	<path fill-rule="evenodd" clip-rule="evenodd" d="M258.282 50.0532C258.509 50.0532 258.727 50.1436 258.888 50.3045C259.049 50.4655 259.14 50.6837 259.14 50.9113V55.2017H263.43C263.658 55.2017 263.876 55.2921 264.037 55.453C264.198 55.6139 264.288 55.8322 264.288 56.0597C264.288 56.2873 264.198 56.5056 264.037 56.6665C263.876 56.8274 263.658 56.9178 263.43 56.9178H259.14V61.2082C259.14 61.4358 259.049 61.654 258.888 61.8149C258.727 61.9759 258.509 62.0663 258.282 62.0663C258.054 62.0663 257.836 61.9759 257.675 61.8149C257.514 61.654 257.424 61.4358 257.424 61.2082V56.9178H253.133C252.906 56.9178 252.687 56.8274 252.526 56.6665C252.366 56.5056 252.275 56.2873 252.275 56.0597C252.275 55.8322 252.366 55.6139 252.526 55.453C252.687 55.2921 252.906 55.2017 253.133 55.2017H257.424V50.9113C257.424 50.6837 257.514 50.4655 257.675 50.3045C257.836 50.1436 258.054 50.0532 258.282 50.0532Z" fill="#FEFEFE"/>
  	<path fill-rule="evenodd" clip-rule="evenodd" d="M46.8081 173.047C46.9991 173.232 47.1091 173.484 47.1138 173.75C47.1185 174.015 47.0176 174.272 46.8332 174.463L43.3574 178.065L46.9591 181.541C47.1501 181.725 47.2601 181.978 47.2648 182.243C47.2696 182.509 47.1686 182.765 46.9843 182.956C46.7999 183.147 46.5472 183.257 46.2817 183.262C46.0163 183.267 45.7598 183.166 45.5687 182.981L41.967 179.505L38.4911 183.107C38.3067 183.298 38.054 183.408 37.7886 183.413C37.5231 183.418 37.2666 183.317 37.0756 183.132C36.8845 182.948 36.7746 182.695 36.7698 182.43C36.7651 182.164 36.866 181.908 37.0504 181.717L40.5263 178.115L36.9246 174.639C36.7335 174.455 36.6235 174.202 36.6188 173.937C36.6141 173.671 36.715 173.415 36.8994 173.224C37.0838 173.033 37.3365 172.923 37.6019 172.918C37.8674 172.913 38.1239 173.014 38.3149 173.198L41.9167 176.674L45.3925 173.073C45.5769 172.882 45.8296 172.772 46.0951 172.767C46.3606 172.762 46.617 172.863 46.8081 173.047Z" fill="#FEFEFE"/>
  	<path fill-rule="evenodd" clip-rule="evenodd" d="M154.168 0C150.851 0 148.161 2.68921 148.161 6.00652C148.161 9.32383 150.851 12.013 154.168 12.013H166.289C164.988 13.2853 164.18 15.0601 164.18 17.0236C164.18 18.9807 164.983 20.7504 166.276 22.0217H158.171C154.854 22.0217 152.164 24.711 152.164 28.0283C152.164 31.3456 154.854 34.0348 158.171 34.0348H214.232C217.549 34.0348 220.238 31.3456 220.238 28.0283C220.238 24.711 217.549 22.0217 214.232 22.0217H192.117C193.411 20.7504 194.213 18.9807 194.213 17.0236C194.213 15.0601 193.405 13.2853 192.104 12.013H204.222C207.54 12.013 210.229 9.32383 210.229 6.00652C210.229 2.68921 207.54 0 204.222 0L154.168 0Z" fill="url(#paint3_linear_37_371)" fill-opacity="0.21"/>
  	<defs>
    		<linearGradient id="paint0_linear_37_371" x1="140.151" y1="50.0513" x2="140.151" y2="150.164" gradientUnits="userSpaceOnUse">
      			<stop stop-color="#121B67"/>
      			<stop offset="0.5" stop-color="#ED4055"/>
      			<stop offset="1" stop-color="#BACA02"/>
    		</linearGradient>
    		<linearGradient id="paint1_linear_37_371" x1="91.2378" y1="37.5385" x2="178.708" y2="146.019" gradientUnits="userSpaceOnUse">
      			<stop stop-color="#58C800"/>
      			<stop offset="0.510417" stop-color="#0092E4"/>
      			<stop offset="1" stop-color="#70FF00"/>
    		</linearGradient>
    		<linearGradient id="paint2_linear_37_371" x1="100.242" y1="48.2579" x2="198.003" y2="176.891" gradientUnits="userSpaceOnUse">
      			<stop stop-color="#3D3ADF"/>
      			<stop offset="0.43402" stop-color="#D05E5E"/>
      			<stop offset="0.59375" stop-color="#CE7253"/>
      			<stop offset="0.70568" stop-color="#BEFF05"/>
    		</linearGradient>
    		<linearGradient id="paint3_linear_37_371" x1="184.2" y1="0" x2="184.2" y2="34.0348" gradientUnits="userSpaceOnUse">
      			<stop stop-color="#121B67"/>
      			<stop offset="0.5" stop-color="#ED4055"/>
      			<stop offset="1" stop-color="#BACA02"/>
    		</linearGradient>
  	</defs>
</svg>
