<?xml version="1.0" encoding="UTF-8"?>
<!DOCTYPE svg PUBLIC "-//W3C//DTD SVG 1.1//EN" "http://www.w3.org/Graphics/SVG/1.1/DTD/svg11.dtd">
<svg xmlns="http://www.w3.org/2000/svg" version="1.1" width="512px" height="512px"
	style="shape-rendering:geometricPrecision; text-rendering:geometricPrecision; image-rendering:optimizeQuality; fill-rule:evenodd; clip-rule:evenodd"
	xmlns:xlink="http://www.w3.org/1999/xlink">
	<g>
		<path style="opacity:0.955" fill="#000000"
			d="M 195.5,9.5 C 237.206,9.028 278.873,9.528 320.5,11C 327.101,13.2201 332.601,17.0534 337,22.5C 341.552,32.153 345.719,41.9863 349.5,52C 368.876,52.0634 388.21,52.73 407.5,54C 428.842,60.0096 442.009,73.8429 447,95.5C 447.333,138.833 447.667,182.167 448,225.5C 472.009,243.177 488.676,266.177 498,294.5C 505.929,330.787 497.595,362.787 473,390.5C 447.154,417.685 416.321,437.185 380.5,449C 355.85,457.831 330.517,463.164 304.5,465C 296.077,459.127 295.411,452.46 302.5,445C 342.432,439.467 380.098,427.134 415.5,408C 436.951,395.691 454.451,379.191 468,358.5C 486.312,319.402 479.646,285.068 448,255.5C 447.667,266.167 447.333,276.833 447,287.5C 441.268,311.232 426.435,325.399 402.5,330C 304.5,330.667 206.5,330.667 108.5,330C 84.5649,325.399 69.7316,311.232 64,287.5C 63.6667,276.833 63.3333,266.167 63,255.5C 30.6612,285.871 24.3279,320.871 44,360.5C 56.2572,378.758 71.7572,393.591 90.5,405C 132.511,429.504 177.845,442.838 226.5,445C 219,437.5 211.5,430 204,422.5C 199.454,410.422 203.621,404.589 216.5,405C 217.833,405.667 219.167,406.333 220.5,407C 235,421.5 249.5,436 264,450.5C 267.949,457.081 267.116,462.914 261.5,468C 248.167,478 234.833,488 221.5,498C 213.322,503.492 206.822,501.992 202,493.5C 200.87,487.232 203.037,482.399 208.5,479C 213.308,475.692 217.975,472.192 222.5,468.5C 173.6,464.611 127.6,451.111 84.5,428C 58.4308,413.264 37.5975,393.098 22,367.5C 4.81292,334.152 5.47958,301.152 24,268.5C 34.1575,251.672 47.1575,237.338 63,225.5C 63.3333,182.167 63.6667,138.833 64,95.5C 69.7316,71.7677 84.5649,57.6011 108.5,53C 126.167,52.6667 143.833,52.3333 161.5,52C 165.281,41.9863 169.448,32.153 174,22.5C 179.645,15.4367 186.811,11.1034 195.5,9.5 Z M 200.5,31.5 C 237.168,31.3333 273.835,31.5 310.5,32C 313.973,32.3194 316.806,33.8194 319,36.5C 323.196,46.7548 327.196,57.0881 331,67.5C 332.5,70.3333 334.667,72.5 337.5,74C 357.833,74.3333 378.167,74.6667 398.5,75C 412.921,77.7549 421.754,86.2549 425,100.5C 425.667,161.167 425.667,221.833 425,282.5C 421.754,296.745 412.921,305.245 398.5,308C 303.167,308.667 207.833,308.667 112.5,308C 98.0793,305.245 89.246,296.745 86,282.5C 85.3333,221.833 85.3333,161.167 86,100.5C 89.246,86.2549 98.0793,77.7549 112.5,75C 133.589,74.9777 154.589,74.3111 175.5,73C 177.378,71.4571 178.878,69.6238 180,67.5C 183.804,57.0881 187.804,46.7548 192,36.5C 194.398,33.8916 197.231,32.2249 200.5,31.5 Z M 255.5,127.5 C 288.943,130.304 309.776,147.97 318,180.5C 320.205,224.43 299.538,249.43 256,255.5C 222.356,252.847 201.356,235.18 193,202.5C 189.407,171.516 201.24,148.683 228.5,134C 237.295,130.383 246.295,128.216 255.5,127.5 Z" />
	</g>
	<g>
		<path style="opacity:0.944" fill="#000000"
			d="M 248.5,105.5 C 288.97,104.519 317.803,122.185 335,158.5C 348.769,199.268 339.269,233.434 306.5,261C 272.5,283 238.5,283 204.5,261C 171.73,233.432 162.23,199.265 176,158.5C 190.318,127.267 214.485,109.6 248.5,105.5 Z M 255.5,127.5 C 246.295,128.216 237.295,130.383 228.5,134C 201.24,148.683 189.407,171.516 193,202.5C 201.356,235.18 222.356,252.847 256,255.5C 299.538,249.43 320.205,224.43 318,180.5C 309.776,147.97 288.943,130.304 255.5,127.5 Z" />
	</g>
</svg>